HIERARCHY
ROOT Hips
{
    OFFSET 0 0 0
    CHANNELS 6 Xposition Yposition Zposition Zrotation Yrotation Xrotation
    JOINT Chest
    {
        OFFSET 1.261052E-14 2.2 9.616505E-08
        CHANNELS 3 Zrotation Yrotation Xrotation
        JOINT Chest2
        {
            OFFSET 0 2.866667 0
            CHANNELS 3 Zrotation Yrotation Xrotation
            JOINT Neck
            {
                OFFSET 0 1.433333 0
                CHANNELS 3 Zrotation Yrotation Xrotation
                JOINT Head
                {
                    OFFSET -5.955877E-09 1.099063 -0.0454182
                    CHANNELS 3 Zrotation Yrotation Xrotation
                    End Site
                    {
                        OFFSET 1.742161E-07 0.215971 1.988305
                    }
                }
            }
            JOINT LeftCollar
            {
                OFFSET 0.6 0.333333 -7.86805E-08
                CHANNELS 3 Zrotation Yrotation Xrotation
                JOINT LeftShoulder
                {
                    OFFSET 1.399785 0.02316189 0.008118234
                    CHANNELS 3 Zrotation Yrotation Xrotation
                    JOINT LeftElbow
                    {
                        OFFSET 2.28797 0.1912422 -0.1364633
                        CHANNELS 3 Zrotation Yrotation Xrotation
                        JOINT LeftWrist
                        {
                            OFFSET 2.775776 0.232193 0.2848766
                            CHANNELS 3 Zrotation Yrotation Xrotation
                            End Site
                            {
                                OFFSET 0.9913487 0.0829258 0.1017416
                            }
                        }
                    }
                }
            }
            JOINT RightCollar
            {
                OFFSET -0.6 0.333333 7.86805E-08
                CHANNELS 3 Zrotation Yrotation Xrotation
                JOINT RightShoulder
                {
                    OFFSET -1.399785 0.02316189 0.008118574
                    CHANNELS 3 Zrotation Yrotation Xrotation
                    JOINT RightElbow
                    {
                        OFFSET -2.28797 0.1912422 -0.136463
                        CHANNELS 3 Zrotation Yrotation Xrotation
                        JOINT RightWrist
                        {
                            OFFSET -2.775776 0.232193 0.2848771
                            CHANNELS 3 Zrotation Yrotation Xrotation
                            End Site
                            {
                                OFFSET -0.9913487 0.0829258 0.1017418
                            }
                        }
                    }
                }
            }
        }
    }
    JOINT LeftHip
    {
        OFFSET 0.9032136 0.1000166 0.0003561888
        CHANNELS 3 Zrotation Yrotation Xrotation
        JOINT LeftKnee
        {
            OFFSET 0.09757304 -3.66482 0.4995777
            CHANNELS 3 Zrotation Yrotation Xrotation
            JOINT LeftAnkle
            {
                OFFSET 0.1137198 -4.272043 -0.4761516
                CHANNELS 3 Zrotation Yrotation Xrotation
                End Site
                {
                    OFFSET -1 0 8.754432E-08
                }
            }
        }
    }
    JOINT RightHip
    {
        OFFSET -0.9032136 0.1000166 0.0003564245
        CHANNELS 3 Zrotation Yrotation Xrotation
        JOINT RightKnee
        {
            OFFSET -0.09757292 -3.66482 0.4995777
            CHANNELS 3 Zrotation Yrotation Xrotation
            JOINT RightAnkle
            {
                OFFSET -0.1137199 -4.272043 -0.4761516
                CHANNELS 3 Zrotation Yrotation Xrotation
                End Site
                {
                    OFFSET -1 0 8.754432E-08
                }
            }
        }
    }
}
MOTION
Frames:    15
Frame Time:    0.016667
1.18268    7.962358    2.866047    -178.9675    2.08308    161.6596    -7.722436    10.30449    6.668623    -8.372405    -1.210329    -7.347242    -0.3630133    -3.733129    7.749737    1.006912    -23.03745    38.40411    -8.736168    0.6050769    -0.0265447    -44.53807    19.9308    9.857681    -0.7866797    -31.02534    2.878716    -7.487944E-07    1.251649E-06    2.881198E-07    1.717529    5.841337    0.0986261    9.69924    0.9445687    0.610618    8.158215    68.25233    12.05894    5.085946E-07    -1.351886E-07    -1.232169E-07    18.19234    10.63401    3.990548    0.3461075    0.9685263    39.41024    -11.34202    -9.610332    -16.66721    -5.686726    -3.040533    2.383448    -0.4020221    -1.03289    42.61395    3.851832    5.371538    -21.30147
1.17679    7.953092    2.836694    -178.9443    2.375112    161.5906    -7.759601    10.38084    6.695263    -8.435575    -1.221494    -7.362969    -0.3640497    -3.740297    7.754578    1.013038    -23.16284    38.50522    -8.735723    0.6880322    -0.02797703    -44.50881    19.96793    9.80288    -0.747097    -30.33355    2.80061    -2.256008E-07    -1.299872E-06    -1.355813E-07    1.569286    5.832412    0.09816686    8.865892    0.8333782    0.1572328    8.332841    68.55141    12.24689    4.949801E-07    2.112972E-07    -5.861282E-07    18.18936    10.29517    4.330889    0.3482628    0.9711473    39.53776    -11.36841    -9.656027    -17.13373    -5.677163    -2.830893    2.506196    -0.4050142    -1.036138    42.77988    3.917552    5.416471    -21.43029
1.16914    7.946173    2.808279    -178.92    2.618529    161.5238    -7.815858    10.40719    6.719302    -8.50253    -1.225652    -7.383298    -0.3652668    -3.750272    7.769229    1.018226    -23.26888    38.66064    -8.725153    0.7548746    -0.0280292    -44.43079    20.14105    9.757826    -0.726504    -29.96375    2.759308    4.13064E-07    -5.503817E-07    -2.064193E-07    1.41176    5.820262    0.09755145    8.000679    0.7993702    -0.3479218    8.439775    68.73032    12.3618    -6.197435E-08    1.091916E-07    -5.526188E-07    18.15909    9.953576    4.651959    0.3495681    0.9727291    39.61483    -11.38243    -9.677537    -17.54522    -5.670621    -2.623435    2.666641    -0.4067056    -1.037964    42.87339    3.980454    5.484085    -21.52806
1.159988    7.94203    2.780799    -178.8947    2.832319    161.4597    -7.886723    10.40151    6.737139    -8.573559    -1.225568    -7.408908    -0.3666457    -3.760422    7.79407    1.02243    -23.35461    38.87135    -8.70264    0.8080773    -0.02704863    -44.29448    20.49162    9.721639    -0.7279555    -29.99004    2.762234    -3.145697E-07    -8.258595E-07    -3.092718E-07    1.245099    5.807763    0.09695654    7.105946    0.8505628    -0.9052438    8.463191    68.76907    12.38693    -1.374102E-08    -1.033253E-08    -4.63073E-07    18.10553    9.617282    4.961072    0.34985    0.9730683    39.63137    -11.39203    -9.658571    -17.89517    -5.667091    -2.418662    2.866119    -0.4069037    -1.038179    42.88439    4.03094    5.593133    -21.58698
1.149631    7.941101    2.754259    -178.8682    3.038494    161.3985    -7.966839    10.38453    6.744531    -8.648867    -1.224401    -7.440312    -0.3682183    -3.767685    7.829367    1.025581    -23.41888    39.13832    -8.666451    0.8503645    -0.02555029    -44.09085    21.05529    9.69408    -0.7551166    -30.47567    2.816564    2.366513E-08    -1.551671E-07    2.123534E-07    1.071704    5.797513    0.0964395    6.201253    0.9859703    -1.513538    8.40039    68.66478    12.31948    4.47049E-07    2.494201E-07    1.406884E-07    18.03664    9.290722    5.301607    0.3486791    0.9716501    39.56231    -11.40903    -9.584379    -18.19724    -5.666877    -2.216964    3.105362    -0.4054211    -1.036578    42.80238    4.063011    5.755924    -21.59802
1.138105    7.942041    2.72864    -178.8408    3.237191    161.3402    -8.051745    10.35752    6.745886    -8.725724    -1.222138    -7.474861    -0.3698826    -3.772615    7.872066    1.02793    -23.46675    39.44622    -8.623937    0.8841685    -0.02366661    -43.85518    21.70412    9.676954    -0.7953148    -31.17303    2.895537    -6.018797E-07    -6.12435E-07    1.367967E-07    0.890063    5.789801    0.0960643    5.277656    1.204655    -2.175767    8.251077    68.41245    12.15893    4.900547E-07    2.919102E-07    -1.427872E-07    17.95944    8.980824    5.654004    0.3467219    0.9692724    39.44655    -11.43332    -9.463357    -18.46675    -5.671137    -2.017879    3.365167    -0.4029387    -1.033886    42.66481    4.079261    5.967422    -21.57923
1.125443    7.943217    2.703922    -178.8123    3.428556    161.2847    -8.135853    10.32196    6.746691    -8.800685    -1.218734    -7.509213    -0.3715126    -3.775866    7.918459    1.029791    -23.5046    39.77673    -8.583624    0.9121689    -0.02160699    -43.62838    22.29288    9.67131    -0.8329008    -31.80371    2.967968    1.397947E-07    7.44032E-07    -6.853973E-08    0.6962044    5.78545    0.09583306    4.307823    1.514132    -2.896796    8.008434    67.98874    11.89742    -5.469328E-07    -3.577E-07    -9.482714E-08    17.88158    8.694074    5.994406    0.3447775    0.966904    39.33147    -11.46468    -9.305122    -18.72321    -5.681305    -1.820696    3.622313    -0.4002799    -1.03099    42.51708    4.082135    6.223222    -21.55259
1.111678    7.944623    2.680084    -178.7829    3.612702    161.2321    -8.218451    10.27835    6.747491    -8.873351    -1.214232    -7.543058    -0.3731143    -3.777633    7.968059    1.031198    -23.53319    40.1263    -8.545592    0.9346614    -0.01935078    -43.41054    22.82376    9.676591    -0.8677626    -32.37136    3.034014    1.194237E-07    -3.72621E-10    -1.870814E-07    0.4911005    5.78424    0.09581114    3.300572    1.916511    -3.677053    7.67838    67.38343    11.54041    -4.396286E-07    6.254768E-07    3.455977E-07    17.80782    8.438152    6.323122    0.3428605    0.9645543    39.21749    -11.50394    -9.112775    -18.96459    -5.697329    -1.625696    3.876777    -0.3974493    -1.027893    42.35942    4.074981    6.515984    -21.51831
1.096846    7.946251    2.657109    -178.7526    3.789792    161.1822    -8.298796    10.2273    6.748913    -8.943332    -1.208676    -7.576031    -0.3746648    -3.778112    8.020282    1.032185    -23.55327    40.49132    -8.509942    0.9519377    -0.01696418    -43.20181    23.29874    9.692245    -0.8997862    -32.87905    3.093788    1.131152E-06    -7.003307E-07    -1.388032E-07    0.2755058    5.78595    0.09596421    2.264323    2.414264    -4.517123    7.271229    66.58652    11.0977    -9.381071E-07    -4.00725E-07    -6.489184E-07    17.74296    8.220645    6.640528    0.3409686    0.9622288    39.10486    -11.55196    -8.889314    -19.18886    -5.719108    -1.433022    4.128574    -0.3944544    -1.024593    42.19202    4.061245    6.838284    -21.47649
1.080979    7.948096    2.634974    -178.7213    3.959935    161.1349    -8.376135    10.16933    6.751537    -9.010207    -1.202121    -7.607778    -0.3761854    -3.777489    8.074605    1.032791    -23.5656    40.86813    -8.476737    0.9642668    -0.01448144    -43.00254    23.71945    9.717704    -0.9288822    -33.32929    3.147377    9.167431E-08    5.84538E-07    1.384716E-07    0.05033205    5.790387    0.09630915    1.206805    3.01045    -5.417877    6.80077    65.58852    10.58265    4.025518E-07    -1.611293E-07    -1.115505E-06    17.69189    8.048983    6.946784    0.3391119    0.9599392    38.99412    -11.60958    -8.637781    -19.3942    -5.746567    -1.24292    4.377685    -0.3913001    -1.021097    42.01511    4.044419    7.182785    -21.42723
1.064113    7.950148    2.613662    -178.6893    4.123299    161.0903    -8.449682    10.10504    6.755982    -9.073594    -1.194603    -7.637964    -0.3776372    -3.775973    8.130539    1.033054    -23.57099    41.25294    -8.446097    0.9719328    -0.01187941    -42.81316    24.08697    9.752487    -0.9548938    -33.72352    3.194755    -5.645239E-07    8.953212E-07    1.188101E-07    -0.1835115    5.797244    0.09689219    0.1344582    3.708551    -6.38055    6.282934    64.38046    10.01072    3.015418E-07    1.440398E-07    8.942564E-07    17.65961    7.930709    7.242232    0.3372976    0.9576911    38.88559    -11.65915    -8.402565    -19.58034    -5.779628    -1.055565    4.624193    -0.3879885    -1.017406    41.82875    4.028051    7.542139    -21.37049
1.046282    7.952403    2.593152    -178.6563    4.28    161.0483    -8.518648    10.03498    6.762857    -9.133056    -1.186161    -7.666205    -0.3790233    -3.773764    8.18754    1.03302    -23.57028    41.64198    -8.418055    0.9751918    -0.00920114    -42.63427    24.40249    9.796061    -0.9777243    -34.06323    3.235933    -7.361319E-07    -5.396664E-07    1.857093E-07    -0.4252752    5.806333    0.09769972    -0.9478349    4.512507    -7.406855    5.734239    62.95378    9.397903    -4.033405E-07    2.795201E-07    -6.947095E-07    17.65118    7.873252    7.527226    0.335529    0.9554913    38.77953    -11.68106    -8.231331    -19.74695    -5.818232    -0.8712091    4.868097    -0.3845262    -1.013519    41.63317    4.015725    7.909039    -21.3062
1.027521    7.954855    2.573424    -178.6226    4.430169    161.0088    -8.582233    9.959704    6.772783    -9.188148    -1.17684    -7.69212    -0.380361    -3.771065    8.245079    1.032727    -23.56436    42.03141    -8.392778    0.9743491    -0.006485664    -42.46642    24.66683    9.847962    -0.9972458    -34.34924    3.27086    -7.65883E-07    -1.301366E-06    -1.582351E-07    -0.6741074    5.817356    0.0987181    -2.037188    5.426764    -8.499043    5.170569    61.30039    8.759583    1.274536E-06    5.438847E-07    -1.589928E-06    17.65702    7.857268    7.801015    0.3338123    0.9533437    38.67618    -11.68148    -8.103891    -19.89888    -5.862272    -0.6900051    5.109496    -0.3809151    -1.009437    41.42845    4.011091    8.276094    -21.23417
1.007863    7.957494    2.554459    -178.5881    4.57397    160.9717    -8.639628    9.879824    6.786356    -9.238419    -1.166667    -7.715291    -0.3816532    -3.768093    8.302616    1.032226    -23.55414    42.41727    -8.370312    0.9696474    -0.003756867    -42.31043    24.88063    9.90768    -1.013343    -34.58209    3.299472    4.665636E-07    1.295612E-07    -1.791071E-07    -0.9292201    5.830042    0.09994382    -3.133432    6.456234    -9.660088    4.606004    59.41201    8.109223    3.758666E-07    -6.874144E-07    4.364742E-07    17.66422    7.858216    8.062527    0.332147    0.9512587    38.57594    -11.66828    -7.994378    -20.04248    -5.911712    -0.5122116    5.348423    -0.3771628    -1.005163    41.21475    4.017759    8.636057    -21.15415
0.9873449    7.960316    2.536237    -178.5529    4.71153    160.9371    -8.690019    9.795898    6.804174    -9.28348    -1.155682    -7.735378    -0.3828881    -3.765063    8.359679    1.031563    -23.54058    42.79571    -8.350773    0.9614032    -0.001016168    -42.16697    25.04456    9.974721    -1.025923    -34.76217    3.321708    5.315232E-07    -7.948565E-07    -2.637333E-07    -1.189828    5.844093    0.1013885    -4.239099    7.606152    -10.89387    4.052415    57.28032    7.458014    -6.800907E-07    7.384183E-07    2.949356E-07    17.67269    7.875387    8.311923    0.3305402    0.949239    38.47891    -11.64183    -7.90193    -20.17805    -5.966469    -0.3379997    5.584912    -0.3732737    -1.0007    40.99228    4.039406    8.981557    -21.06586
